<svg width="100" height="100" viewBox="0 0 100 100" fill="none" xmlns="http://www.w3.org/2000/svg">
<g clip-path="url(#clip0_5069_26375)">
<circle cx="50" cy="50" r="50" fill="white"/>
<g clip-path="url(#clip1_5069_26375)">
<path d="M49.9912 12L49.4668 13.7547V64.6683L49.9912 65.1837L73.9836 51.214L49.9912 12Z" fill="#343434"/>
<path d="M49.993 12L26 51.214L49.993 65.1837V40.4717V12Z" fill="#8C8C8C"/>
<path d="M49.9928 69.6578L49.6973 70.0128V88.149L49.9928 88.9989L73.9999 55.6953L49.9928 69.6578Z" fill="#3C3C3B"/>
<path d="M49.993 88.9989V69.6578L26 55.6953L49.993 88.9989Z" fill="#8C8C8C"/>
<path d="M49.9941 65.1837L73.9865 51.214L49.9941 40.4717V65.1837Z" fill="#141414"/>
<path d="M26 51.214L49.993 65.1837V40.4717L26 51.214Z" fill="#393939"/>
</g>
</g>
<defs>
<clipPath id="clip0_5069_26375">
<rect width="100" height="100" fill="white"/>
</clipPath>
<clipPath id="clip1_5069_26375">
<rect width="48" height="77" fill="white" transform="translate(26 12)"/>
</clipPath>
</defs>
</svg>
