<svg width="100" height="100" viewBox="0 0 100 100" fill="none" xmlns="http://www.w3.org/2000/svg">
<g clip-path="url(#clip0_27945_43238)">
<path d="M50 0C77.6168 0 100 22.3877 100 50C100 77.6168 77.6168 100 50 100C22.3877 100 0 77.6145 0 50C0 22.3877 22.3877 0 50 0Z" fill="#F5AC37"/>
<path d="M51.8428 53.5297H70.842C71.247 53.5297 71.4383 53.5297 71.4675 52.9987C71.6228 51.0659 71.6228 49.1219 71.4675 47.1869C71.4675 46.8112 71.2808 46.6559 70.8735 46.6559H33.0619C32.5939 46.6559 32.4679 46.8112 32.4679 47.2499V52.812C32.4679 53.5297 32.4679 53.5297 33.2171 53.5297H51.8428ZM69.3457 40.1556C69.3997 40.0138 69.3997 39.8586 69.3457 39.7191C69.0285 39.0283 68.6527 38.3691 68.2162 37.7503C67.5592 36.6928 66.7852 35.7185 65.9032 34.8433C65.4869 34.3145 65.0054 33.8398 64.4654 33.437C61.7609 31.1352 58.5456 29.5062 55.0896 28.6872C53.3458 28.2957 51.5638 28.109 49.7773 28.1247H32.9966C32.5286 28.1247 32.4656 28.3115 32.4656 28.7187V39.8113C32.4656 40.2793 32.4656 40.4053 33.0596 40.4053H69.1207C69.1207 40.4053 69.4335 40.3423 69.4965 40.1556H69.3435H69.3457ZM69.3457 60.03C68.8147 59.9715 68.2792 59.9715 67.7482 60.03H33.0934C32.6254 60.03 32.4679 60.03 32.4679 60.6555V71.5006C32.4679 72.0002 32.4679 72.1262 33.0934 72.1262H49.0933C49.8583 72.1847 50.6233 72.1307 51.3726 71.9709C53.6946 71.8044 55.9784 71.3004 58.1564 70.4701C58.9484 70.1956 59.7134 69.8379 60.4357 69.4081H60.6539C64.4047 67.4574 67.4512 64.3928 69.3727 60.6308C69.3727 60.6308 69.591 60.1583 69.3457 60.0345V60.03ZM26.1881 77.749V77.5622V70.2811V67.8129V60.4688C26.1881 60.0615 26.1881 60.0008 25.6885 60.0008H18.907C18.5312 60.0008 18.376 60.0008 18.376 59.5013V53.5635H25.6255C26.0306 53.5635 26.1881 53.5635 26.1881 53.0325V47.1577C26.1881 46.7819 26.1881 46.6896 25.6885 46.6896H18.907C18.5312 46.6896 18.376 46.6896 18.376 46.1901V40.6911C18.376 40.3468 18.376 40.2546 18.8755 40.2546H25.594C26.0621 40.2546 26.1881 40.2546 26.1881 39.6606V22.8169C26.1881 22.3174 26.1881 22.1914 26.8136 22.1914H50.2498C51.9508 22.2589 53.6406 22.4457 55.3123 22.7539C58.7571 23.3907 62.0669 24.6214 65.0932 26.3787C67.1002 27.56 68.9475 28.9865 70.5922 30.629C71.8298 31.9138 72.9458 33.3043 73.9358 34.7848C74.919 36.2855 75.7358 37.8898 76.3771 39.5661C76.4558 40.0026 76.8743 40.2973 77.3108 40.2231H82.9044C83.6221 40.2231 83.6221 40.2231 83.6536 40.9116V46.0371C83.6536 46.5366 83.4669 46.6627 82.9651 46.6627H78.6518C78.2153 46.6627 78.0893 46.6627 78.1208 47.2252C78.2918 49.1287 78.2918 51.0389 78.1208 52.9425C78.1208 53.4735 78.1208 53.5365 78.7171 53.5365H83.6514C83.8696 53.8177 83.6514 54.099 83.6514 54.3825C83.6829 54.7447 83.6829 55.1115 83.6514 55.4737V59.256C83.6514 59.787 83.4961 59.9445 83.0259 59.9445H77.1196C76.7078 59.8658 76.3073 60.129 76.2128 60.5385C74.8065 64.1948 72.5565 67.4731 69.6495 70.1011C68.5875 71.0574 67.4715 71.9574 66.306 72.7877C65.0549 73.5077 63.8377 74.2569 62.5552 74.8509C60.1949 75.9129 57.7199 76.6959 55.1796 77.1932C52.7676 77.6252 50.3218 77.821 47.867 77.7872H26.1791V77.7557L26.1881 77.749Z" fill="#FEFEFD"/>
</g>
<defs>
<clipPath id="clip0_27945_43238">
<rect width="100" height="100" fill="white"/>
</clipPath>
</defs>
</svg>
