<svg width="100" height="100" viewBox="0 0 100 100" fill="none" xmlns="http://www.w3.org/2000/svg">
<path d="M50 100C77.7085 100 100 77.7085 100 50C100 22.2915 77.7085 0 50 0C22.2915 0 0 22.2915 0 50C0 77.7085 22.2915 100 50 100Z" fill="black"/>
<path fill-rule="evenodd" clip-rule="evenodd" d="M52.9577 17.866C52.2699 18.7412 51.1946 19.3039 49.9945 19.3039C48.7879 19.3039 47.7188 18.7412 47.031 17.866C46.5311 17.2284 46.2309 16.4157 46.2309 15.5405C46.2309 14.3902 46.7435 13.3588 47.5563 12.6711C48.2127 12.1022 49.0692 11.7646 49.9945 11.7646C50.9195 11.7646 51.776 12.1085 52.4324 12.6711C53.2578 13.3588 53.7704 14.3902 53.7704 15.5405C53.7704 16.4157 53.4703 17.2284 52.9577 17.866ZM21.6747 24.6334L25.6591 27.9165H25.6653C30.2127 22.9197 36.2114 19.4294 42.7852 17.9417L41.9409 12.8381C34.1408 14.5456 27.0289 18.6824 21.6747 24.6334ZM21.6747 75.3585L25.6603 72.0756C30.209 77.0724 36.2092 80.5626 42.7852 82.0504L41.9407 87.1539C34.1383 85.4465 27.0243 81.3096 21.6747 75.3585ZM58.0645 87.1539L57.22 82.0504C63.802 80.5564 69.8023 77.0724 74.3386 72.0756L78.3304 75.3585C72.9808 81.3096 65.8669 85.4402 58.0645 87.1539ZM52.5319 81.6963C51.863 81.0711 50.969 80.696 49.9937 80.696C49.0185 80.696 48.1307 81.0649 47.4556 81.6963C46.7055 82.384 46.2302 83.3717 46.2302 84.4719C46.2302 85.3659 46.5366 86.1911 47.0618 86.8349C47.7493 87.6913 48.8123 88.2352 49.9937 88.2352C51.1752 88.2352 52.2382 87.6913 52.9257 86.8349C53.4634 86.1849 53.7697 85.3659 53.7697 84.4719C53.7697 83.3717 53.2947 82.384 52.5381 81.6963H52.5319ZM57.22 17.9417L58.0645 12.8381C65.8669 14.5519 72.9808 18.6824 78.3304 24.6334L74.3386 27.9165C69.8023 22.9197 63.802 19.4357 57.22 17.9417ZM81.6084 59.9277L86.4308 61.7401C88.8516 54.1145 88.8389 45.8741 86.3871 38.261L81.5584 40.0858C83.6038 46.5201 83.6038 53.4686 81.6084 59.9277ZM80.8014 63.6743C81.7766 63.6743 82.6706 64.0495 83.3397 64.6746H83.3459C84.1023 65.3622 84.5773 66.3501 84.5773 67.4503C84.5773 68.3443 84.2712 69.1632 83.7335 69.8132C83.0458 70.6697 81.9831 71.2136 80.8014 71.2136C79.6199 71.2136 78.5572 70.6697 77.8694 69.8132C77.3444 69.1694 77.038 68.3443 77.038 67.4503C77.038 66.3501 77.5131 65.3622 78.2633 64.6746C78.9386 64.0433 79.8261 63.6743 80.8014 63.6743ZM83.3402 29.7819C82.6713 29.1567 81.7773 28.7816 80.8021 28.7816C79.8268 28.7816 78.9391 29.1505 78.264 29.7819C77.5136 30.4695 77.0385 31.4572 77.0385 32.5575C77.0385 33.4514 77.3449 34.2766 77.8701 34.9205C78.5577 35.7769 79.6206 36.3208 80.8021 36.3208C81.9835 36.3208 83.0465 35.7769 83.734 34.9205C84.2717 34.2704 84.5781 33.4514 84.5781 32.5575C84.5781 31.4572 84.103 30.4695 83.3464 29.7819H83.3402ZM13.571 61.7401L18.3934 59.9277C16.3981 53.4686 16.3981 46.5201 18.4435 40.0858L13.6148 38.261C11.1629 45.8741 11.1504 54.1145 13.571 61.7401ZM21.7289 64.6746C21.06 64.0495 20.166 63.6743 19.1908 63.6743C18.2155 63.6743 17.3278 64.0433 16.6526 64.6746C15.9024 65.3622 15.4273 66.3501 15.4273 67.4503C15.4273 68.3443 15.7336 69.1694 16.2587 69.8132C16.9464 70.6697 18.0092 71.2136 19.1908 71.2136C20.3723 71.2136 21.4351 70.6697 22.1228 69.8132C22.6604 69.1632 22.9668 68.3443 22.9668 67.4503C22.9668 66.3501 22.4916 65.3622 21.7352 64.6746H21.7289ZM19.1905 28.7816C20.1657 28.7816 21.0597 29.1567 21.7286 29.7819H21.7349C22.4913 30.4695 22.9665 31.4572 22.9665 32.5575C22.9665 33.4514 22.6601 34.2704 22.1225 34.9205C21.4348 35.7769 20.372 36.3208 19.1905 36.3208C18.0089 36.3208 16.9461 35.7769 16.2584 34.9205C15.7333 34.2766 15.427 33.4514 15.427 32.5575C15.427 31.4572 15.9021 30.4695 16.6523 29.7819C17.3275 29.1505 18.2152 28.7816 19.1905 28.7816ZM44.9374 52.2274C44.9374 52.636 45.1567 53.0136 45.5138 53.2179L49.4169 55.4463C49.7803 55.6506 50.2189 55.6506 50.5697 55.4463L54.4854 53.2179C54.8363 53.0136 55.0618 52.636 55.0618 52.2274V47.7706C55.0618 47.3619 54.8363 46.9844 54.4854 46.7801L50.5697 44.5517C50.2189 44.3473 49.7741 44.3473 49.4169 44.5517L45.5138 46.7801C45.1503 46.9844 44.9374 47.3619 44.9374 47.7706V52.2274ZM49.9937 65.9426C50.969 65.9426 51.863 66.3178 52.5319 66.943H52.5381C53.2947 67.6305 53.7697 68.6184 53.7697 69.7186C53.7697 70.6126 53.4634 71.4315 52.9257 72.0815C52.2382 72.938 51.1752 73.4819 49.9937 73.4819C48.8123 73.4819 47.7493 72.938 47.0618 72.0815C46.5366 71.4378 46.2302 70.6126 46.2302 69.7186C46.2302 68.6184 46.7055 67.6305 47.4556 66.943C48.1307 66.3116 49.0185 65.9426 49.9937 65.9426ZM52.9257 27.9257C52.2382 27.0623 51.1752 26.518 49.9937 26.518C48.8123 26.518 47.7493 27.0623 47.0618 27.9257C46.5366 28.5764 46.2302 29.396 46.2302 30.2907C46.2302 31.3794 46.6928 32.3679 47.443 33.0561C48.1245 33.6756 49.0061 34.0572 49.9937 34.0572C50.9814 34.0572 51.8754 33.6756 52.5445 33.0561C53.2947 32.3679 53.7697 31.3794 53.7697 30.2907C53.7697 29.396 53.4634 28.5702 52.9257 27.9257ZM57.647 34.552L59.4422 29.7524C76.286 37.7329 76.2984 62.2558 59.4422 70.2486L57.647 65.4492C70.127 59.1685 70.1332 40.839 57.647 34.552ZM40.5594 29.7524L42.3548 34.552C29.8686 40.839 29.8748 59.1685 42.3548 65.4492L40.5594 70.2486C23.7034 62.2558 23.7159 37.7329 40.5594 29.7524Z" fill="white"/>
</svg>
