<svg width="100" height="100" viewBox="0 0 100 100" fill="none" xmlns="http://www.w3.org/2000/svg">
<g clip-path="url(#clip0_27945_43218)">
<circle cx="50" cy="50" r="50" fill="#FF060A"/>
<path d="M80 37.2808C77 34.5108 72.85 30.2808 69.47 27.2808L69.27 27.1409C68.9372 26.8736 68.562 26.6641 68.16 26.5209C60.01 25.0009 22.08 17.9108 21.34 18.0008C21.1326 18.0299 20.9345 18.1051 20.76 18.2208L20.57 18.3708C20.336 18.6085 20.1584 18.8955 20.05 19.2108L20 19.3408V20.0508V20.1608C24.27 32.0508 41.13 71.0008 44.45 80.1409C44.65 80.7609 45.03 81.9408 45.74 82.0008H45.9C46.28 82.0008 47.9 79.8609 47.9 79.8609C47.9 79.8609 76.86 44.7408 79.79 41.0008C80.1693 40.5402 80.5041 40.0446 80.79 39.5208C80.863 39.111 80.8286 38.6893 80.6901 38.2968C80.5517 37.9042 80.3139 37.5542 80 37.2808ZM55.33 41.3708L67.69 31.1208L74.94 37.8008L55.33 41.3708ZM50.53 40.7008L29.25 23.2608L63.68 29.6108L50.53 40.7008ZM52.45 45.2708L74.23 41.7608L49.33 71.7608L52.45 45.2708ZM26.36 25.0008L48.75 44.0008L45.51 71.7808L26.36 25.0008Z" fill="white"/>
</g>
<defs>
<clipPath id="clip0_27945_43218">
<rect width="100" height="100" fill="white"/>
</clipPath>
</defs>
</svg>
